<?xml version="1.0" encoding="utf-8"?>
<!-- Generator: Adobe Illustrator 17.1.0, SVG Export Plug-In . SVG Version: 6.00 Build 0)  -->
<!DOCTYPE svg PUBLIC "-//W3C//DTD SVG 1.1//EN" "http://www.w3.org/Graphics/SVG/1.1/DTD/svg11.dtd">
<svg version="1.1" id="Layer_1" xmlns="http://www.w3.org/2000/svg" xmlns:xlink="http://www.w3.org/1999/xlink" x="0px" y="0px"
	 viewBox="0 0 135.179 208.532" enable-background="new 0 0 135.179 208.532" xml:space="preserve">
<g>
	<path fill="none" stroke="#000000" stroke-miterlimit="10" d="M17.634,195.351c-1.693-0.709-7.875-15.239-7.875-15.239l-5.67-1.418
		c0,0-2.835-10.632,0-16.302c2.835-5.67,28.351-9.923,28.351-9.923s12.859-15.172,9.19-20.459
		c-16.979-24.47-16.623-23.908-19.476-29.713c-7.116-14.482,7.139-36.652,7.139-36.652L15.376,44.234h4.015l3.747,5.353l0.268-6.959
		l2.409-0.268c-2.676,5.888,6.156,21.411,11.241,20.073c18.142-4.774,21.411-12.847,24.891-15.791
		c3.479-2.944-8.297-30.511-8.297-30.511l3.212-0.803c0,0,5.888,22.214,13.264,24.623c7.376,2.409,18.853-18.467,18.853-18.467
		L86.569,8.102l1.338-1.338l3.479,1.338l2.409,12.312l10.973-9.367h2.944L98.078,23.09c-14.185,4.282-22.214,31.047-22.214,31.047
		S55.522,64.574,48.296,71.533c-21.528,20.73,13.65,42.823,13.65,42.823l10.706-7.226l2.944-16.861l2.944-0.803v3.479l2.676-4.015
		l1.071,2.141l-4.55,5.62l-1.071,9.368l17.397-9.1l2.409-9.367l1.874,2.676l-1.338,5.62c0,0,7.494-5.085,8.029-2.676
		c0.535,2.409,10.706,3.212,6.691,2.944c-4.015-0.268-44.161,26.497-44.161,26.497l0.915,18.953l0,0l0,0
		c0,0,29.147-11.598,39.066,6.023c0,0,30.092-10.233,23.986,21.486v8.004c0,0,0,13.247-5.18,14.688
		C55.58,211.486,19.327,196.06,17.634,195.351"/>
</g>
</svg>
